<svg width="39" height="39" viewBox="0 0 39 39" fill="none" xmlns="http://www.w3.org/2000/svg">
<path d="M30.9907 7.00775V13.8327L31.7524 13.071H8.73711C7.9335 13.071 7.16035 13.4519 6.76426 14.1717C6.49766 14.6516 6.48623 15.1505 6.48623 15.6723V25.9288L7.24795 25.1671H3.82021C3.80879 25.1671 3.66025 25.1671 3.66025 25.1595L3.76309 25.1709C3.72881 25.1633 3.69834 25.1557 3.66406 25.1481C3.63359 25.1405 3.59932 25.129 3.56885 25.1176C3.49268 25.0871 3.50791 25.0948 3.61074 25.1405C3.61074 25.1443 3.48887 25.0757 3.48125 25.0719C3.3251 24.9805 3.48125 25.0757 3.47363 25.0795C3.46602 25.0871 3.26035 24.8815 3.26797 24.8739C3.28701 24.8548 3.35937 25.0148 3.30225 24.9081C3.27939 24.8662 3.25273 24.8205 3.22988 24.7786C3.14609 24.6339 3.27178 24.9386 3.22988 24.7786C3.22607 24.7634 3.17275 24.5844 3.18037 24.5844L3.1918 24.6872C3.18799 24.653 3.18418 24.6187 3.18418 24.5844C3.18037 24.5197 3.18418 24.5501 3.18418 24.5311V24.4854C3.17656 23.1676 3.18418 21.846 3.18418 20.5283V6.95824C3.18418 6.93919 3.18799 6.92396 3.18799 6.90492C3.19561 6.82113 3.19561 6.83636 3.18037 6.95443C3.17656 6.95443 3.22607 6.77542 3.22988 6.76019C3.14609 6.90111 3.27178 6.59642 3.22988 6.76019C3.25654 6.71829 3.27939 6.6764 3.30225 6.6307C3.38223 6.48597 3.18418 6.74876 3.30225 6.62689C3.33652 6.59261 3.36699 6.55452 3.40508 6.52025C3.53457 6.39837 3.40508 6.52025 3.40127 6.51644C3.39746 6.51263 3.51553 6.44408 3.52695 6.43646C3.68691 6.34886 3.52314 6.43265 3.52314 6.42884C3.52314 6.42122 3.64502 6.38695 3.66787 6.38314C3.68311 6.37933 3.70215 6.37552 3.71738 6.37171C3.80117 6.35648 3.78213 6.35648 3.66406 6.37552C3.66406 6.3679 3.80879 6.3679 3.82021 6.3679H27.7534C28.6218 6.3679 29.4901 6.35648 30.3585 6.3679C30.3775 6.3679 30.5185 6.36409 30.5185 6.37552C30.5223 6.39456 30.3356 6.32601 30.4918 6.37933C30.5299 6.39076 30.5718 6.40218 30.6137 6.41361C30.4728 6.32982 30.7774 6.4555 30.6137 6.41361C30.6556 6.44027 30.6975 6.46312 30.7432 6.48597C30.8879 6.56595 30.6251 6.3679 30.747 6.48597C30.7812 6.52025 30.8193 6.55072 30.8536 6.5888C30.9755 6.71829 30.8536 6.5888 30.8574 6.58499C30.8612 6.58118 30.9298 6.69925 30.9374 6.71068C31.025 6.87064 30.9412 6.70687 30.945 6.70687C30.9526 6.70687 30.9869 6.84017 30.9907 6.85159C30.9945 6.86683 30.9983 6.88587 31.0021 6.90111C31.0174 6.9849 31.0174 6.96585 30.9983 6.84779C30.9907 6.8516 30.9907 6.99632 30.9907 7.00775C30.9983 7.40765 31.3373 7.78851 31.7524 7.76947C32.16 7.75042 32.5218 7.43431 32.5142 7.00775C32.4913 5.81947 31.543 4.86351 30.3509 4.84447H4.59717C4.33437 4.84447 4.07539 4.84066 3.8126 4.84447C2.86426 4.8597 2.05303 5.45765 1.74834 6.35267C1.65693 6.61546 1.64551 6.89349 1.64551 7.16771V24.5159C1.65693 25.449 2.23203 26.2488 3.1042 26.5687C3.54219 26.7286 4.0335 26.6868 4.49053 26.6868H7.24033C7.65166 26.6868 8.00205 26.3364 8.00205 25.925V18.464C8.00205 17.409 7.99824 16.3578 8.00205 15.3029V15.2038C8.00205 15.1696 8.00586 15.1353 8.00967 15.101C8.01348 14.9982 7.96777 15.2457 8.00586 15.1505C8.02871 15.0934 8.04775 15.0172 8.05918 14.9563C8.07822 14.8611 7.98682 15.082 8.04014 15.002C8.06299 14.9677 8.07822 14.9296 8.09727 14.8953C8.09346 14.903 8.15059 14.8116 8.15059 14.8116C8.16582 14.8192 8.04014 14.9334 8.12012 14.8496L8.25723 14.7125C8.36006 14.6135 8.22295 14.7468 8.21914 14.743C8.21914 14.743 8.2915 14.6973 8.30293 14.6897C8.32959 14.6744 8.36006 14.6592 8.39053 14.6402C8.23818 14.6821 8.52764 14.5602 8.39053 14.6402C8.40195 14.6364 8.58477 14.583 8.58477 14.5907C8.58477 14.6021 8.38291 14.6021 8.53525 14.5983C8.56953 14.5983 8.60381 14.5945 8.63809 14.5945H8.6457C8.79424 14.5907 8.94277 14.5945 9.09131 14.5945H31.7486C32.16 14.5945 32.5103 14.2441 32.5103 13.8327V7.00775C32.5103 6.60785 32.16 6.22699 31.7486 6.24603C31.3411 6.26507 30.9907 6.58118 30.9907 7.00775Z" fill="#C1FD35"/>
<path d="M2.41084 11.0678H30.5602C30.941 11.0678 31.3257 11.0755 31.7065 11.0678H31.7561C32.156 11.0678 32.5368 10.7174 32.5178 10.3061C32.4987 9.89479 32.1826 9.5444 31.7561 9.5444H3.60674C3.22588 9.5444 2.84121 9.53678 2.46035 9.5444H2.41084C2.01094 9.5444 1.63008 9.89479 1.64912 10.3061C1.66817 10.7213 1.98428 11.0678 2.41084 11.0678ZM35.8274 15.2344V31.9884C35.8274 32.0075 35.8274 32.1484 35.8198 32.1522C35.8046 32.156 35.8655 31.9542 35.8236 32.0989C35.8084 32.1446 35.797 32.1941 35.7817 32.2436C35.7398 32.396 35.8503 32.1484 35.7932 32.2208C35.7627 32.2627 35.7322 32.3236 35.7094 32.3693C35.6332 32.5064 35.8008 32.2893 35.7246 32.3541C35.6941 32.3807 35.6713 32.415 35.6408 32.4455C35.6332 32.4531 35.538 32.5483 35.5304 32.5445C35.5113 32.5255 35.6713 32.4531 35.5647 32.5102C35.5228 32.5331 35.4771 32.5597 35.4352 32.5826C35.2942 32.6664 35.5951 32.5407 35.4352 32.5826C35.4047 32.5902 35.3704 32.6016 35.3399 32.6131C35.3057 32.6207 35.2752 32.6283 35.2409 32.6359C35.359 32.6207 35.3742 32.6207 35.2904 32.6283C34.6163 32.6359 33.9422 32.6321 33.2681 32.6321H10.6869C10.0052 32.6321 9.32344 32.6435 8.64551 32.6321H8.59219C8.57315 32.6321 8.55791 32.6283 8.53887 32.6283C8.45508 32.6207 8.47031 32.6207 8.58838 32.6359C8.58838 32.6397 8.45127 32.6016 8.43985 32.6016C8.42842 32.5978 8.34463 32.5712 8.34463 32.5712C8.34463 32.5674 8.50459 32.6511 8.34844 32.5635C8.32178 32.5483 8.29131 32.5293 8.26465 32.514C8.1961 32.4683 8.21133 32.4798 8.29893 32.5483C8.27227 32.5293 8.24942 32.5064 8.22656 32.4836C8.1961 32.4569 8.16944 32.4264 8.14278 32.396C8.03233 32.2855 8.16944 32.4074 8.1542 32.415C8.14658 32.4188 8.02852 32.2055 8.03233 32.2017C8.03994 32.1979 8.08946 32.3731 8.03994 32.1979C8.03614 32.1865 8.00186 32.0494 8.00567 32.0494C8.01709 32.0494 8.01709 32.2512 8.01328 32.0989C8.01328 32.057 8.00947 32.038 8.00947 31.9923V18.3156C8.00947 17.2911 7.99424 16.2628 8.00947 15.2382V15.2344C8.00947 15.2154 8.00567 15.2649 8.00947 15.1811C8.00947 15.1621 8.01328 15.1468 8.01328 15.1278C8.0209 15.044 8.0209 15.0592 8.00567 15.1773C8.00947 15.1773 8.05518 14.9336 8.07422 14.9374C8.07803 14.9374 7.99424 15.0973 8.08184 14.9412C8.08565 14.9374 8.1542 14.8155 8.16182 14.8155C8.16563 14.8193 8.04375 14.9488 8.16563 14.8193C8.19229 14.7888 8.22276 14.7622 8.25322 14.7355C8.36367 14.6251 8.2418 14.7622 8.23418 14.7469C8.23037 14.7431 8.34844 14.6746 8.35987 14.667C8.37129 14.6593 8.44746 14.6213 8.44746 14.6213C8.45127 14.6289 8.27608 14.6784 8.45127 14.6289C8.48936 14.6174 8.53887 14.6136 8.57315 14.5984C8.63028 14.587 8.60742 14.5908 8.49697 14.606C8.53125 14.6022 8.56553 14.5984 8.59981 14.5984C8.66074 14.5946 8.72168 14.5984 8.77881 14.5984H35.2447C35.2638 14.5984 35.279 14.6022 35.298 14.6022C35.3666 14.6098 35.3666 14.6098 35.298 14.6022C35.2828 14.5984 35.2638 14.5984 35.2485 14.5946C35.2828 14.6022 35.3133 14.6098 35.3476 14.6174C35.359 14.6213 35.4923 14.6555 35.4923 14.6632C35.4885 14.686 35.3438 14.587 35.4466 14.6479C35.4885 14.6746 35.5304 14.6974 35.5761 14.7203C35.7208 14.8003 35.4618 14.6022 35.5799 14.7203C35.5989 14.7393 35.7589 14.884 35.7513 14.8955C35.736 14.9107 35.6599 14.7393 35.7322 14.8802C35.7513 14.9145 35.7741 14.9526 35.7932 14.9869C35.7513 14.8269 35.877 15.1278 35.7932 14.9869C35.8008 15.0173 35.8122 15.0516 35.8236 15.0821C35.8274 15.0973 35.8313 15.1164 35.8351 15.1316C35.8503 15.2154 35.8503 15.1964 35.8313 15.0783C35.8274 15.0783 35.8274 15.223 35.8274 15.2344C35.8351 15.6343 36.174 16.0152 36.5892 15.9962C36.9967 15.9771 37.3585 15.661 37.3509 15.2344C37.3318 14.2404 36.6311 13.2997 35.6218 13.1207C35.439 13.0864 35.2638 13.075 35.081 13.075H8.74453C8.53887 13.075 8.33701 13.0902 8.13897 13.1359C7.17158 13.353 6.50127 14.2632 6.48604 15.2382C6.48223 15.5163 6.48604 15.7905 6.48604 16.0685V31.8018C6.48604 31.9008 6.48223 31.9999 6.48985 32.0989C6.56983 33.1767 7.36582 34.0146 8.43985 34.1403C8.66836 34.167 8.90449 34.1555 9.13301 34.1555H34.7458C35.081 34.1555 35.4161 34.1708 35.7475 34.0832C36.692 33.8356 37.3356 32.9558 37.3509 31.9923V15.2344C37.3509 14.8345 37.0005 14.4537 36.5892 14.4727C36.1778 14.4918 35.8274 14.8079 35.8274 15.2344Z" fill="#C1FD35"/>
<path d="M11.4372 28.8995H14.0766C14.4765 28.8995 14.8573 28.5492 14.8383 28.1378C14.8192 27.7265 14.5031 27.3761 14.0766 27.3761H11.4372C11.0373 27.3761 10.6564 27.7265 10.6755 28.1378C10.6945 28.5492 11.0106 28.8995 11.4372 28.8995ZM15.8666 22.5659H12.317C12.2332 22.5697 12.2675 22.5925 12.3094 22.5735C12.3551 22.5506 12.3741 22.5887 12.3094 22.5697C12.317 22.5697 12.2142 22.5468 12.2104 22.5392C12.2104 22.5087 12.3589 22.623 12.2561 22.5506C12.138 22.4668 12.2865 22.5849 12.2903 22.5849C12.2865 22.5887 12.2142 22.5125 12.218 22.5163C12.1266 22.4364 12.2751 22.543 12.2446 22.5544C12.2408 22.5544 12.2065 22.4935 12.2065 22.4897C12.1685 22.4059 12.2484 22.6458 12.2142 22.5087C12.2142 22.5163 12.1875 22.4097 12.1913 22.4097C12.2142 22.3983 12.1989 22.5811 12.2027 22.4554V19.0658C12.2027 19.0124 12.2065 18.9553 12.2027 18.902C12.2027 18.8906 12.2104 18.8525 12.2027 18.8449C12.237 18.8868 12.1685 18.9972 12.1989 18.8944C12.1951 18.902 12.2218 18.7953 12.2294 18.7953C12.2256 18.7953 12.157 18.9743 12.218 18.841C12.2713 18.7306 12.2027 18.902 12.1837 18.8753C12.1799 18.8715 12.2561 18.7992 12.2522 18.803C12.336 18.7116 12.218 18.8372 12.2142 18.8296C12.218 18.8334 12.298 18.7725 12.3018 18.7801C12.3208 18.8106 12.138 18.8258 12.2599 18.7992C12.2789 18.7953 12.3513 18.7839 12.3589 18.7763C12.3398 18.7915 12.1761 18.7839 12.3132 18.7877H15.6267C15.699 18.7877 15.7752 18.7915 15.8476 18.7877C15.8666 18.7877 15.9123 18.7953 15.9237 18.7877C15.8704 18.8296 15.7752 18.7496 15.8742 18.7839C15.8933 18.7915 15.958 18.8144 15.9732 18.8144C15.9504 18.8182 15.8171 18.7344 15.9275 18.803C16.0304 18.8677 15.8971 18.7687 15.8933 18.7687C15.8971 18.7649 15.9542 18.8296 15.9656 18.8372C16.0761 18.9363 15.9275 18.8068 15.939 18.7992C15.9352 18.7992 15.9961 18.8829 15.9885 18.8868C15.9771 18.8944 15.9352 18.6963 15.9694 18.8449C15.9732 18.8639 15.9847 18.9325 15.9923 18.9439C15.9847 18.9325 15.9885 18.7915 15.9771 18.8715V18.9058C15.9732 18.9667 15.9771 19.0315 15.9771 19.0924V22.4554C15.9771 22.4744 15.9694 22.5049 15.9771 22.5125C15.9618 22.4973 16.0266 22.3297 15.9809 22.463C15.9771 22.4783 15.9732 22.4973 15.9656 22.5125C15.9428 22.5773 15.9428 22.5773 15.9656 22.5163C15.9923 22.5049 15.9999 22.4516 15.958 22.5163C15.8818 22.642 15.9885 22.4821 15.9923 22.4821C15.9961 22.4859 15.9313 22.543 15.9237 22.5544C15.8438 22.6458 15.9504 22.4973 15.9618 22.5278C15.9656 22.5354 15.8704 22.5735 15.8742 22.5773C15.8666 22.5659 16.0608 22.524 15.9161 22.5582C15.8933 22.5659 15.8666 22.5697 15.8399 22.5773C15.7409 22.6039 16.0418 22.5582 15.8666 22.5659C15.4705 22.5773 15.0858 22.9086 15.1049 23.3276C15.1239 23.7313 15.44 24.1007 15.8666 24.0893C16.773 24.0626 17.4776 23.3618 17.5005 22.4554C17.5043 22.2726 17.5005 22.0898 17.5005 21.907V19.5342C17.5005 19.3247 17.5043 19.1153 17.5005 18.9058C17.4853 18.1479 16.9521 17.4166 16.1751 17.2948C15.9237 17.2567 15.68 17.2605 15.4286 17.2605H14.2975C13.6462 17.2605 12.9949 17.2567 12.3437 17.2605C11.6314 17.2681 11.0106 17.6909 10.7669 18.365C10.6679 18.643 10.6755 18.9325 10.6755 19.2257V22.3754C10.6755 22.9734 10.9421 23.5332 11.4639 23.8532C11.8028 24.0588 12.1723 24.0893 12.5531 24.0893H15.8666C16.2665 24.0893 16.6474 23.7389 16.6283 23.3276C16.6093 22.9124 16.2932 22.5659 15.8666 22.5659ZM16.9711 28.8995H19.6105C20.0104 28.8995 20.3912 28.5492 20.3722 28.1378C20.3531 27.7265 20.037 27.3761 19.6105 27.3761H16.9711C16.5712 27.3761 16.1903 27.7265 16.2094 28.1378C16.2284 28.5492 16.5445 28.8995 16.9711 28.8995ZM22.505 28.9376H25.1443C25.5442 28.9376 25.9251 28.5872 25.9061 28.1759C25.887 27.7646 25.5709 27.4142 25.1443 27.4142H22.505C22.1051 27.4142 21.7242 27.7646 21.7433 28.1759C21.7623 28.5872 22.0784 28.9376 22.505 28.9376ZM28.0389 28.9376H30.6782C31.0781 28.9376 31.459 28.5872 31.4399 28.1759C31.4209 27.7646 31.1048 27.4142 30.6782 27.4142H28.0389C27.639 27.4142 27.2581 27.7646 27.2772 28.1759C27.2962 28.5872 27.6123 28.9376 28.0389 28.9376Z" fill="#C1FD35"/>
</svg>
