<svg width="45" height="47" viewBox="0 0 45 47" fill="none" xmlns="http://www.w3.org/2000/svg">
<g clip-path="url(#clip0_1296_4496)">
<path d="M23.917 2.95512C21.1464 2.94983 18.4021 3.51619 15.8417 4.62168C13.2812 5.72718 10.955 7.35003 8.99672 9.39705C0.770156 17.9892 0.770156 31.9659 8.99953 40.5581C17.2261 49.1473 30.608 49.1473 38.8345 40.5581C47.0583 31.9659 47.0583 17.9892 38.8345 9.39705C36.8773 7.35007 34.5522 5.7272 31.9926 4.62168C29.4331 3.51617 26.6896 2.9498 23.9198 2.95512H23.917ZM23.917 5.87499C28.5914 5.87499 33.2658 7.7403 36.8433 11.4739C38.5435 13.2458 39.8925 15.3506 40.8129 17.6677C41.7333 19.9849 42.207 22.4689 42.207 24.9776C42.207 27.4862 41.7333 29.9702 40.8129 32.2874C39.8925 34.6045 38.5435 36.7093 36.8433 38.4812C35.1468 40.2571 33.1315 41.666 30.913 42.6273C28.6944 43.5886 26.3161 44.0834 23.9142 44.0834C21.5123 44.0834 19.134 43.5886 16.9155 42.6273C14.6969 41.666 12.6817 40.2571 10.9852 38.4812C9.28489 36.7093 7.93596 34.6045 7.01557 32.2874C6.09519 29.9702 5.62143 27.4862 5.62143 24.9776C5.62143 22.4689 6.09519 19.9849 7.01557 17.6677C7.93596 15.3506 9.28489 13.2458 10.9852 11.4739C12.6812 9.69671 14.6967 8.28719 16.9161 7.32634C19.1354 6.36548 21.5146 5.87225 23.917 5.87499ZM32.242 19.0996C31.9757 19.1258 31.722 19.2307 31.5108 19.4022L21.2339 27.4509L16.4723 22.4807C16.3426 22.3404 16.1874 22.2285 16.0159 22.1515C15.8443 22.0746 15.6598 22.034 15.4731 22.0323C15.2863 22.0306 15.1012 22.0678 14.9283 22.1417C14.7555 22.2155 14.5985 22.3246 14.4665 22.4625C14.3344 22.6004 14.23 22.7644 14.1593 22.9449C14.0886 23.1254 14.053 23.3188 14.0546 23.5138C14.0563 23.7088 14.0951 23.9016 14.1688 24.0807C14.2425 24.2599 14.3496 24.422 14.4839 24.5575L20.1089 30.4325C20.348 30.6823 20.6652 30.8338 21.0025 30.8591C21.3398 30.8845 21.6746 30.782 21.9455 30.5706L33.1955 21.7581C33.4338 21.5766 33.6116 21.3214 33.7034 21.0286C33.7953 20.7359 33.7967 20.4204 33.7075 20.1267C33.6182 19.8331 33.4428 19.5762 33.2061 19.3924C32.9693 19.2086 32.6832 19.1072 32.3883 19.1026C32.3405 19.1 32.2926 19.1 32.2448 19.1026L32.242 19.0996Z" fill="black"/>
</g>
<defs>
<clipPath id="clip0_1296_4496">
<rect width="45" height="47" fill="white"/>
</clipPath>
</defs>
</svg>
