<svg width="101" height="104" viewBox="0 0 101 104" fill="none" xmlns="http://www.w3.org/2000/svg">
<g clip-path="url(#clip0_1226_7590)">
<path d="M53.6815 6.53914C47.463 6.52744 41.3036 7.78067 35.5568 10.2269C29.81 12.6731 24.589 16.2641 20.1937 20.7936C1.72963 39.8061 1.72963 70.7332 20.2 89.7457C38.6641 108.752 68.6989 108.752 87.163 89.7457C105.621 70.7332 105.621 39.8061 87.163 20.7936C82.7702 16.2642 77.5515 12.6731 71.8068 10.2269C66.062 7.78062 59.9044 6.52738 53.6878 6.53914H53.6815ZM53.6815 13.0001C64.1729 13.0001 74.6643 17.1276 82.6938 25.3891C86.5099 29.31 89.5375 33.9674 91.6033 39.0947C93.669 44.2221 94.7323 49.7186 94.7323 55.2697C94.7323 60.8207 93.669 66.3172 91.6033 71.4445C89.5375 76.5719 86.5099 81.2293 82.6938 85.1502C78.886 89.0797 74.3629 92.1972 69.3835 94.3243C64.4041 96.4514 59.0661 97.5463 53.6752 97.5463C48.2843 97.5463 42.9463 96.4514 37.9669 94.3243C32.9875 92.1972 28.4644 89.0797 24.6566 85.1502C20.8405 81.2293 17.8129 76.5719 15.7471 71.4445C13.6814 66.3172 12.618 60.8207 12.618 55.2697C12.618 49.7186 13.6814 44.2221 15.7471 39.0947C17.8129 33.9674 20.8405 29.31 24.6566 25.3891C28.4632 21.4567 32.9871 18.3378 37.9682 16.2116C42.9493 14.0855 48.2894 12.9941 53.6815 13.0001ZM72.3665 42.2631C71.7687 42.321 71.1994 42.5533 70.7253 42.9326L47.6594 60.7427L36.9723 49.7446C36.6812 49.4342 36.3329 49.1866 35.9478 49.0163C35.5627 48.846 35.1486 48.7563 34.7295 48.7526C34.3104 48.7488 33.8948 48.8311 33.5069 48.9945C33.119 49.1579 32.7666 49.3992 32.4703 49.7044C32.1739 50.0095 31.9396 50.3724 31.7809 50.7718C31.6222 51.1712 31.5423 51.5992 31.5459 52.0307C31.5496 52.4622 31.6366 52.8887 31.8021 53.2852C31.9675 53.6817 32.2079 54.0403 32.5094 54.3401L45.1344 67.3402C45.671 67.8929 46.383 68.2281 47.1401 68.2842C47.8972 68.3403 48.6485 68.1136 49.2564 67.6457L74.5064 48.1456C75.0415 47.7441 75.4403 47.1795 75.6465 46.5316C75.8528 45.8838 75.8559 45.1856 75.6556 44.5359C75.4553 43.8861 75.0616 43.3176 74.5302 42.9109C73.9989 42.5042 73.3568 42.2799 72.6948 42.2696C72.5875 42.264 72.4801 42.264 72.3728 42.2696L72.3665 42.2631Z" fill="#C1FD35"/>
</g>
<defs>
<clipPath id="clip0_1226_7590">
<rect width="101" height="104" fill="white"/>
</clipPath>
</defs>
</svg>
