<svg width="27" height="28" viewBox="0 0 27 28" fill="none" xmlns="http://www.w3.org/2000/svg">
<g clip-path="url(#clip0_1261_12003)">
<path d="M14.3502 1.76076C12.6879 1.75761 11.0413 2.09502 9.50499 2.75361C7.96872 3.4122 6.57302 4.37901 5.39803 5.59851C0.462094 10.7173 0.462094 19.0438 5.39972 24.1625C10.3357 29.2795 18.3648 29.2795 23.3007 24.1625C28.235 19.0438 28.235 10.7173 23.3007 5.59851C22.1264 4.37904 20.7313 3.41222 19.1956 2.75361C17.6599 2.09501 16.0138 1.7576 14.3519 1.76076H14.3502ZM14.3502 3.50026C17.1548 3.50026 19.9595 4.61151 22.106 6.83576C23.1261 7.89138 23.9355 9.1453 24.4877 10.5257C25.04 11.9062 25.3242 13.386 25.3242 14.8805C25.3242 16.375 25.04 17.8549 24.4877 19.2353C23.9355 20.6157 23.1261 21.8696 22.106 22.9253C21.0881 23.9832 19.8789 24.8225 18.5478 25.3952C17.2167 25.9679 15.7897 26.2627 14.3485 26.2627C12.9074 26.2627 11.4804 25.9679 10.1493 25.3952C8.81815 24.8225 7.60901 23.9832 6.59109 22.9253C5.57094 21.8696 4.76157 20.6157 4.20934 19.2353C3.65711 17.8549 3.37286 16.375 3.37286 14.8805C3.37286 13.386 3.65711 11.9062 4.20934 10.5257C4.76157 9.1453 5.57094 7.89138 6.59109 6.83576C7.6087 5.77703 8.81805 4.93732 10.1496 4.3649C11.4812 3.79247 12.9088 3.49863 14.3502 3.50026ZM19.3452 11.3788C19.1854 11.3943 19.0332 11.4569 18.9065 11.559L12.7403 16.354L9.88341 13.393C9.80557 13.3094 9.71247 13.2428 9.60953 13.1969C9.50659 13.1511 9.39587 13.1269 9.28384 13.1259C9.17181 13.1249 9.0607 13.147 8.95701 13.191C8.85331 13.235 8.75911 13.3 8.67989 13.3822C8.60066 13.4643 8.53801 13.562 8.49559 13.6696C8.45316 13.7771 8.43182 13.8923 8.43279 14.0085C8.43376 14.1247 8.45704 14.2395 8.50126 14.3462C8.54548 14.453 8.60976 14.5495 8.69034 14.6303L12.0653 18.1303C12.2088 18.2791 12.3991 18.3693 12.6015 18.3844C12.8039 18.3995 13.0048 18.3385 13.1673 18.2125L19.9173 12.9625C20.0603 12.8544 20.1669 12.7024 20.2221 12.528C20.2772 12.3536 20.278 12.1656 20.2245 11.9906C20.1709 11.8157 20.0657 11.6627 19.9236 11.5532C19.7816 11.4437 19.6099 11.3833 19.433 11.3805C19.4043 11.379 19.3756 11.379 19.3469 11.3805L19.3452 11.3788Z" fill="#C1FD35"/>
</g>
<defs>
<clipPath id="clip0_1261_12003">
<rect width="27" height="28" fill="white"/>
</clipPath>
</defs>
</svg>
